<?xml version="1.0" encoding="UTF-8"?>
<svg id="Layer_1" data-name="Layer 1" xmlns="http://www.w3.org/2000/svg" xmlns:xlink="http://www.w3.org/1999/xlink" viewBox="0 0 437 486">
  <defs>
    <style>
      .cls-1 {
        font-size: 82.97px;
      }

      .cls-1, .cls-2 {
        fill: #fff;
      }

      .cls-1, .cls-3 {
        font-family: Tahoma-Bold, Tahoma;
        font-weight: 700;
      }

      .cls-4 {
        fill: url(#linear-gradient);
      }

      .cls-4, .cls-2, .cls-5, .cls-6, .cls-7 {
        stroke-width: 0px;
      }

      .cls-8 {
        stroke-width: 3px;
      }

      .cls-8, .cls-9, .cls-10 {
        stroke: #000;
        stroke-miterlimit: 10;
      }

      .cls-5 {
        fill: url(#linear-gradient-2);
      }

      .cls-6 {
        fill: url(#radial-gradient-2);
      }

      .cls-7 {
        fill: url(#radial-gradient);
      }

      .cls-9 {
        fill: none;
      }

      .cls-9, .cls-10 {
        stroke-width: 5px;
      }

      .cls-3 {
        font-size: 34.15px;
      }

      .cls-10 {
        fill: #f8b02f;
      }
    </style>
    <linearGradient id="linear-gradient" x1="425.45" y1="-231.48" x2="425.45" y2="-193.92" gradientTransform="translate(-81.6 523.96) rotate(-22.4)" gradientUnits="userSpaceOnUse">
      <stop offset="0" stop-color="#33d679"/>
      <stop offset="1" stop-color="#18b85d"/>
    </linearGradient>
    <linearGradient id="linear-gradient-2" x1="2373.77" y1="571.75" x2="2373.77" y2="609.31" gradientTransform="translate(2614.31 523.96) rotate(-157.6) scale(1 -1)" xlink:href="#linear-gradient"/>
    <radialGradient id="radial-gradient" cx="212.66" cy="117.7" fx="212.66" fy="117.7" r="33.35" gradientUnits="userSpaceOnUse">
      <stop offset="0" stop-color="#33d679"/>
      <stop offset="1" stop-color="#18b85d"/>
    </radialGradient>
    <radialGradient id="radial-gradient-2" cx="207.13" cy="106.67" fx="207.13" fy="106.67" r="41.35" gradientUnits="userSpaceOnUse">
      <stop offset="0" stop-color="#8edb53"/>
      <stop offset="1" stop-color="#33d679"/>
    </radialGradient>
  </defs>
  <path class="cls-10" d="m420.5,326.49v-164.49c0-22.35-11.92-42.99-31.27-54.17L246.77,25.58c-19.35-11.17-43.19-11.17-62.54,0L41.77,107.83c-19.35,11.17-31.27,31.82-31.27,54.17v164.49c0,22.35,11.92,42.99,31.27,54.17l142.46,82.25c19.35,11.17,43.19,11.17,62.54,0l142.46-82.25c19.35-11.17,31.27-31.82,31.27-54.17Z"/>
  <path class="cls-9" d="m51.5,304v4.08c0,17.88,9.54,34.39,25.02,43.33l113.96,65.8c15.48,8.94,34.55,8.94,50.04,0l113.96-65.8c15.48-8.94,25.02-25.46,25.02-43.33"/>
  <path class="cls-9" d="m379.5,184v-4.08c0-17.88-9.54-34.39-25.02-43.33l-113.96-65.8c-15.48-8.94-34.55-8.94-50.04,0l-113.96,65.8c-15.48,8.94-25.02,25.46-25.02,43.33"/>
  <text class="cls-1" transform="translate(51.49 268.58)"><tspan x="0" y="0">EXPERT</tspan></text>
  <text class="cls-3" transform="translate(131.38 316.49)"><tspan x="0" y="0">Certified</tspan></text>
  <line class="cls-8" x1="102" y1="334" x2="324" y2="334"/>
  <g>
    <polygon class="cls-4" points="247.33 178.07 234.65 174.83 227.94 186.07 210.89 144.7 230.28 136.71 247.33 178.07"/>
    <polygon class="cls-5" points="177.98 178.07 190.66 174.83 197.37 186.07 214.43 144.7 195.04 136.71 177.98 178.07"/>
    <g>
      <path class="cls-7" d="m244.73,120.81c.63.96.93,2.04.93,3.11,0,1.93-.97,3.81-2.75,4.89-1.72,1.04-2.75,2.9-2.75,4.88,0,.24.02.49.05.73.03.25.05.5.05.74,0,2.89-2.2,5.39-5.16,5.67-1.12.11-2.16.54-3.01,1.22-.85.68-1.5,1.59-1.86,2.67-.8,2.4-3.03,3.91-5.42,3.91-.65,0-1.32-.11-1.97-.35-.64-.24-1.31-.35-1.97-.35-1.52,0-3.01.61-4.1,1.74-1.12,1.16-2.61,1.74-4.1,1.74s-2.98-.58-4.1-1.74c-1.1-1.13-2.58-1.74-4.1-1.74-.66,0-1.33.12-1.97.35-.65.24-1.32.35-1.97.35-2.39,0-4.62-1.51-5.42-3.91-.35-1.07-1.01-1.99-1.86-2.67-.85-.68-1.89-1.11-3.01-1.22-2.96-.28-5.16-2.78-5.16-5.67,0-.24.02-.49.05-.74.03-.25.05-.49.05-.73,0-1.98-1.03-3.84-2.75-4.88-1.78-1.07-2.75-2.96-2.75-4.89,0-1.07.3-2.15.93-3.11.62-.95.92-2.03.92-3.11s-.31-2.17-.92-3.11c-.63-.96-.93-2.04-.93-3.11,0-1.93.97-3.81,2.75-4.89,1.72-1.04,2.75-2.9,2.75-4.88,0-.24-.02-.49-.05-.73-.03-.25-.05-.5-.05-.74,0-2.89,2.2-5.39,5.16-5.67,1.12-.11,2.16-.54,3.01-1.22.85-.68,1.5-1.59,1.86-2.67.8-2.4,3.03-3.91,5.42-3.91.65,0,1.32.11,1.97.35.64.24,1.31.35,1.97.35,1.52,0,3.01-.61,4.1-1.74,1.12-1.16,2.61-1.74,4.1-1.74s2.98.58,4.1,1.74c1.57,1.62,3.95,2.17,6.07,1.39.65-.24,1.32-.35,1.97-.35,2.39,0,4.62,1.51,5.42,3.91.35,1.07,1.01,1.99,1.86,2.67s1.89,1.11,3.01,1.22c2.96.28,5.16,2.78,5.16,5.67,0,.24-.02.49-.05.74-.03.25-.05.49-.05.73,0,1.98,1.03,3.84,2.75,4.88,1.78,1.07,2.75,2.96,2.75,4.89,0,1.07-.3,2.15-.93,3.11-.62.95-.92,2.03-.92,3.11s.31,2.17.92,3.11Z"/>
      <circle class="cls-6" cx="212.66" cy="117.7" r="26.67"/>
      <polygon class="cls-2" points="207.45 133.11 196.33 121.99 201.1 117.21 206.93 123.04 222.97 103.29 228.22 107.54 207.45 133.11"/>
    </g>
  </g>
</svg>