<?xml version="1.0" encoding="UTF-8"?>
<svg id="Layer_1" data-name="Layer 1" xmlns="http://www.w3.org/2000/svg" xmlns:xlink="http://www.w3.org/1999/xlink" viewBox="0 0 478.51 516.4">
  <defs>
    <style>
      .cls-1 {
        fill: url(#linear-gradient);
      }

      .cls-1, .cls-2, .cls-3, .cls-4, .cls-5 {
        stroke-width: 0px;
      }

      .cls-6 {
        stroke-width: 3px;
      }

      .cls-6, .cls-7, .cls-8 {
        stroke: #000;
        stroke-miterlimit: 10;
      }

      .cls-7 {
        fill: #e02bd7;
      }

      .cls-7, .cls-8 {
        stroke-width: 5px;
      }

      .cls-2, .cls-9 {
        fill: #fff;
      }

      .cls-3 {
        fill: url(#linear-gradient-2);
      }

      .cls-4 {
        fill: url(#radial-gradient-2);
      }

      .cls-5 {
        fill: url(#radial-gradient);
      }

      .cls-8 {
        fill: none;
      }

      .cls-9 {
        font-family: Tahoma-Bold, Tahoma;
        font-size: 61.11px;
        font-weight: 700;
      }
    </style>
    <linearGradient id="linear-gradient" x1="451.96" y1="-227.41" x2="451.96" y2="-189.85" gradientTransform="translate(-81.15 534.37) rotate(-22.4)" gradientUnits="userSpaceOnUse">
      <stop offset="0" stop-color="#33d679"/>
      <stop offset="1" stop-color="#18b85d"/>
    </linearGradient>
    <linearGradient id="linear-gradient-2" x1="2400.28" y1="575.82" x2="2400.28" y2="613.38" gradientTransform="translate(2666.88 534.37) rotate(-157.6) scale(1 -1)" xlink:href="#linear-gradient"/>
    <radialGradient id="radial-gradient" cx="239.17" cy="121.76" fx="239.17" fy="121.76" r="33.35" gradientUnits="userSpaceOnUse">
      <stop offset="0" stop-color="#33d679"/>
      <stop offset="1" stop-color="#18b85d"/>
    </radialGradient>
    <radialGradient id="radial-gradient-2" cx="233.64" cy="110.74" fx="233.64" fy="110.74" r="41.35" gradientUnits="userSpaceOnUse">
      <stop offset="0" stop-color="#8edb53"/>
      <stop offset="1" stop-color="#33d679"/>
    </radialGradient>
  </defs>
  <path class="cls-7" d="m447.01,330.56v-164.49c0-22.35-11.92-42.99-31.27-54.17L273.28,29.65c-19.35-11.17-43.19-11.17-62.54,0L68.28,111.9c-19.35,11.17-31.27,31.82-31.27,54.17v164.49c0,22.35,11.92,42.99,31.27,54.17l142.46,82.25c19.35,11.17,43.19,11.17,62.54,0l142.46-82.25c19.35-11.17,31.27-31.82,31.27-54.17Z"/>
  <path class="cls-8" d="m78.01,308.07v4.08c0,17.88,9.54,34.39,25.02,43.33l113.96,65.8c15.48,8.94,34.55,8.94,50.04,0l113.96-65.8c15.48-8.94,25.02-25.46,25.02-43.33"/>
  <path class="cls-8" d="m406.01,188.07v-4.08c0-17.88-9.54-34.39-25.02-43.33l-113.96-65.8c-15.48-8.94-34.55-8.94-50.04,0l-113.96,65.8c-15.48,8.94-25.02,25.46-25.02,43.33"/>
  <text class="cls-9" transform="translate(78 274.47)"><tspan x="0" y="0">ACHIEVER</tspan></text>
  <line class="cls-6" x1="131.51" y1="308.57" x2="353.51" y2="308.57"/>
  <line class="cls-6" x1="131.51" y1="200.57" x2="353.51" y2="200.57"/>
  <g>
    <polygon class="cls-1" points="273.84 182.14 261.16 178.9 254.45 190.14 237.4 148.77 256.79 140.78 273.84 182.14"/>
    <polygon class="cls-3" points="204.49 182.14 217.17 178.9 223.88 190.14 240.94 148.77 221.55 140.78 204.49 182.14"/>
    <g>
      <path class="cls-5" d="m271.24,124.88c.63.96.93,2.04.93,3.11,0,1.93-.97,3.81-2.75,4.89-1.72,1.04-2.75,2.9-2.75,4.88,0,.24.02.49.05.73.03.25.05.5.05.74,0,2.89-2.2,5.39-5.16,5.67-1.12.11-2.16.54-3.01,1.22-.85.68-1.5,1.59-1.86,2.67-.8,2.4-3.03,3.91-5.42,3.91-.65,0-1.32-.11-1.97-.35-.64-.24-1.31-.35-1.97-.35-1.52,0-3.01.61-4.1,1.74-1.12,1.16-2.61,1.74-4.1,1.74s-2.98-.58-4.1-1.74c-1.1-1.13-2.58-1.74-4.1-1.74-.66,0-1.33.12-1.97.35-.65.24-1.32.35-1.97.35-2.39,0-4.62-1.51-5.42-3.91-.35-1.07-1.01-1.99-1.86-2.67-.85-.68-1.89-1.11-3.01-1.22-2.96-.28-5.16-2.78-5.16-5.67,0-.24.02-.49.05-.74.03-.25.05-.49.05-.73,0-1.98-1.03-3.84-2.75-4.88-1.78-1.07-2.75-2.96-2.75-4.89,0-1.07.3-2.15.93-3.11.62-.95.92-2.03.92-3.11s-.31-2.17-.92-3.11c-.63-.96-.93-2.04-.93-3.11,0-1.93.97-3.81,2.75-4.89,1.72-1.04,2.75-2.9,2.75-4.88,0-.24-.02-.49-.05-.73-.03-.25-.05-.5-.05-.74,0-2.89,2.2-5.39,5.16-5.67,1.12-.11,2.16-.54,3.01-1.22.85-.68,1.5-1.59,1.86-2.67.8-2.4,3.03-3.91,5.42-3.91.65,0,1.32.11,1.97.35.64.24,1.31.35,1.97.35,1.52,0,3.01-.61,4.1-1.74,1.12-1.16,2.61-1.74,4.1-1.74s2.98.58,4.1,1.74c1.57,1.62,3.95,2.17,6.07,1.39.65-.24,1.32-.35,1.97-.35,2.39,0,4.62,1.51,5.42,3.91.35,1.07,1.01,1.99,1.86,2.67s1.89,1.11,3.01,1.22c2.96.28,5.16,2.78,5.16,5.67,0,.24-.02.49-.05.74-.03.25-.05.49-.05.73,0,1.98,1.03,3.84,2.75,4.88,1.78,1.07,2.75,2.96,2.75,4.89,0,1.07-.3,2.15-.93,3.11-.62.95-.92,2.03-.92,3.11s.31,2.17.92,3.11Z"/>
      <circle class="cls-4" cx="239.17" cy="121.76" r="26.67"/>
      <polygon class="cls-2" points="233.96 137.18 222.84 126.05 227.61 121.28 233.44 127.11 249.48 107.35 254.73 111.61 233.96 137.18"/>
    </g>
  </g>
</svg>